# xmcd
#
# Track frame offsets:
#	182
#	12235
#	28802
#	41992
#	55512
#	69932
#	82502
#	93120
#	109492
#	121940
#	136037
#	148672
#	163150
#	176492
#	194185
#	207500
#
# Disc length: 2929 seconds
#
# Revision: 0
# Processed by: cddbd v1.4PL0 Copyright (c) Steve Scherf et al.
# Submitted via: dBpowerAMP V4.0
#
DISCID=dc0b6f10
DTITLE=Frans Doolaard and Friends - Steelguitars in love
DYEAR=1900
DGENRE=Country
TTITLE0=Stand by your man
TTITLE1=Blue bayou
TTITLE2=The most beautiful girl
TTITLE3=Spanish eyes
TTITLE4=Rose garden
TTITLE5=Thank you for calling
TTITLE6=He'll have to go
TTITLE7=Love story
TTITLE8=Are you lonesome tonight?
TTITLE9=Vaya con dios
TTITLE10=Home on the range
TTITLE11=Maria Elena
TTITLE12=If I only had time
TTITLE13=Save the last dance for me
TTITLE14=Moon of Manakoora
TTITLE15=Blue Hawaii
EXTD=
EXTT0=
EXTT1=
EXTT2=
EXTT3=
EXTT4=
EXTT5=
EXTT6=
EXTT7=
EXTT8=
EXTT9=
EXTT10=
EXTT11=
EXTT12=
EXTT13=
EXTT14=
EXTT15=
PLAYORDER=
